<?xml version="1.0"?>
<svg xmlns="http://www.w3.org/2000/svg" xmlns:xlink="http://www.w3.org/1999/xlink" width="893.933333298" height="548.8" font-family="Consolas, Menlo, 'Bitstream Vera Sans Mono', monospace, 'Powerline Symbols'" font-size="14px">
<style>
<!-- asciinema theme -->

.default-text-fill {fill: #cccccc}
.default-bg-fill {fill: #121314}

.c-0 {fill: #000000}
.c-1 {fill: #dd3c69}
.c-2 {fill: #4ebf22}
.c-3 {fill: #ddaf3c}
.c-4 {fill: #26b0d7}
.c-5 {fill: #b954e1}
.c-6 {fill: #54e1b9}
.c-7 {fill: #d9d9d9}
.c-8 {fill: #4d4d4d}
.c-9 {fill: #dd3c69}
.c-10 {fill: #4ebf22}
.c-11 {fill: #ddaf3c}
.c-12 {fill: #26b0d7}
.c-13 {fill: #b954e1}
.c-14 {fill: #54e1b9}
.c-15 {fill: #ffffff}
.c-8, .c-9, .c-10, .c-11, .c-12, .c-13, .c-14, .c-15 {font-weight: bold}

<!-- 256 colors -->

.c-16 {fill: #000000}
.c-17 {fill: #00005f}
.c-18 {fill: #000087}
.c-19 {fill: #0000af}
.c-20 {fill: #0000d7}
.c-21 {fill: #0000ff}
.c-22 {fill: #005f00}
.c-23 {fill: #005f5f}
.c-24 {fill: #005f87}
.c-25 {fill: #005faf}
.c-26 {fill: #005fd7}
.c-27 {fill: #005fff}
.c-28 {fill: #008700}
.c-29 {fill: #00875f}
.c-30 {fill: #008787}
.c-31 {fill: #0087af}
.c-32 {fill: #0087d7}
.c-33 {fill: #0087ff}
.c-34 {fill: #00af00}
.c-35 {fill: #00af5f}
.c-36 {fill: #00af87}
.c-37 {fill: #00afaf}
.c-38 {fill: #00afd7}
.c-39 {fill: #00afff}
.c-40 {fill: #00d700}
.c-41 {fill: #00d75f}
.c-42 {fill: #00d787}
.c-43 {fill: #00d7af}
.c-44 {fill: #00d7d7}
.c-45 {fill: #00d7ff}
.c-46 {fill: #00ff00}
.c-47 {fill: #00ff5f}
.c-48 {fill: #00ff87}
.c-49 {fill: #00ffaf}
.c-50 {fill: #00ffd7}
.c-51 {fill: #00ffff}
.c-52 {fill: #5f0000}
.c-53 {fill: #5f005f}
.c-54 {fill: #5f0087}
.c-55 {fill: #5f00af}
.c-56 {fill: #5f00d7}
.c-57 {fill: #5f00ff}
.c-58 {fill: #5f5f00}
.c-59 {fill: #5f5f5f}
.c-60 {fill: #5f5f87}
.c-61 {fill: #5f5faf}
.c-62 {fill: #5f5fd7}
.c-63 {fill: #5f5fff}
.c-64 {fill: #5f8700}
.c-65 {fill: #5f875f}
.c-66 {fill: #5f8787}
.c-67 {fill: #5f87af}
.c-68 {fill: #5f87d7}
.c-69 {fill: #5f87ff}
.c-70 {fill: #5faf00}
.c-71 {fill: #5faf5f}
.c-72 {fill: #5faf87}
.c-73 {fill: #5fafaf}
.c-74 {fill: #5fafd7}
.c-75 {fill: #5fafff}
.c-76 {fill: #5fd700}
.c-77 {fill: #5fd75f}
.c-78 {fill: #5fd787}
.c-79 {fill: #5fd7af}
.c-80 {fill: #5fd7d7}
.c-81 {fill: #5fd7ff}
.c-82 {fill: #5fff00}
.c-83 {fill: #5fff5f}
.c-84 {fill: #5fff87}
.c-85 {fill: #5fffaf}
.c-86 {fill: #5fffd7}
.c-87 {fill: #5fffff}
.c-88 {fill: #870000}
.c-89 {fill: #87005f}
.c-90 {fill: #870087}
.c-91 {fill: #8700af}
.c-92 {fill: #8700d7}
.c-93 {fill: #8700ff}
.c-94 {fill: #875f00}
.c-95 {fill: #875f5f}
.c-96 {fill: #875f87}
.c-97 {fill: #875faf}
.c-98 {fill: #875fd7}
.c-99 {fill: #875fff}
.c-100 {fill: #878700}
.c-101 {fill: #87875f}
.c-102 {fill: #878787}
.c-103 {fill: #8787af}
.c-104 {fill: #8787d7}
.c-105 {fill: #8787ff}
.c-106 {fill: #87af00}
.c-107 {fill: #87af5f}
.c-108 {fill: #87af87}
.c-109 {fill: #87afaf}
.c-110 {fill: #87afd7}
.c-111 {fill: #87afff}
.c-112 {fill: #87d700}
.c-113 {fill: #87d75f}
.c-114 {fill: #87d787}
.c-115 {fill: #87d7af}
.c-116 {fill: #87d7d7}
.c-117 {fill: #87d7ff}
.c-118 {fill: #87ff00}
.c-119 {fill: #87ff5f}
.c-120 {fill: #87ff87}
.c-121 {fill: #87ffaf}
.c-122 {fill: #87ffd7}
.c-123 {fill: #87ffff}
.c-124 {fill: #af0000}
.c-125 {fill: #af005f}
.c-126 {fill: #af0087}
.c-127 {fill: #af00af}
.c-128 {fill: #af00d7}
.c-129 {fill: #af00ff}
.c-130 {fill: #af5f00}
.c-131 {fill: #af5f5f}
.c-132 {fill: #af5f87}
.c-133 {fill: #af5faf}
.c-134 {fill: #af5fd7}
.c-135 {fill: #af5fff}
.c-136 {fill: #af8700}
.c-137 {fill: #af875f}
.c-138 {fill: #af8787}
.c-139 {fill: #af87af}
.c-140 {fill: #af87d7}
.c-141 {fill: #af87ff}
.c-142 {fill: #afaf00}
.c-143 {fill: #afaf5f}
.c-144 {fill: #afaf87}
.c-145 {fill: #afafaf}
.c-146 {fill: #afafd7}
.c-147 {fill: #afafff}
.c-148 {fill: #afd700}
.c-149 {fill: #afd75f}
.c-150 {fill: #afd787}
.c-151 {fill: #afd7af}
.c-152 {fill: #afd7d7}
.c-153 {fill: #afd7ff}
.c-154 {fill: #afff00}
.c-155 {fill: #afff5f}
.c-156 {fill: #afff87}
.c-157 {fill: #afffaf}
.c-158 {fill: #afffd7}
.c-159 {fill: #afffff}
.c-160 {fill: #d70000}
.c-161 {fill: #d7005f}
.c-162 {fill: #d70087}
.c-163 {fill: #d700af}
.c-164 {fill: #d700d7}
.c-165 {fill: #d700ff}
.c-166 {fill: #d75f00}
.c-167 {fill: #d75f5f}
.c-168 {fill: #d75f87}
.c-169 {fill: #d75faf}
.c-170 {fill: #d75fd7}
.c-171 {fill: #d75fff}
.c-172 {fill: #d78700}
.c-173 {fill: #d7875f}
.c-174 {fill: #d78787}
.c-175 {fill: #d787af}
.c-176 {fill: #d787d7}
.c-177 {fill: #d787ff}
.c-178 {fill: #d7af00}
.c-179 {fill: #d7af5f}
.c-180 {fill: #d7af87}
.c-181 {fill: #d7afaf}
.c-182 {fill: #d7afd7}
.c-183 {fill: #d7afff}
.c-184 {fill: #d7d700}
.c-185 {fill: #d7d75f}
.c-186 {fill: #d7d787}
.c-187 {fill: #d7d7af}
.c-188 {fill: #d7d7d7}
.c-189 {fill: #d7d7ff}
.c-190 {fill: #d7ff00}
.c-191 {fill: #d7ff5f}
.c-192 {fill: #d7ff87}
.c-193 {fill: #d7ffaf}
.c-194 {fill: #d7ffd7}
.c-195 {fill: #d7ffff}
.c-196 {fill: #ff0000}
.c-197 {fill: #ff005f}
.c-198 {fill: #ff0087}
.c-199 {fill: #ff00af}
.c-200 {fill: #ff00d7}
.c-201 {fill: #ff00ff}
.c-202 {fill: #ff5f00}
.c-203 {fill: #ff5f5f}
.c-204 {fill: #ff5f87}
.c-205 {fill: #ff5faf}
.c-206 {fill: #ff5fd7}
.c-207 {fill: #ff5fff}
.c-208 {fill: #ff8700}
.c-209 {fill: #ff875f}
.c-210 {fill: #ff8787}
.c-211 {fill: #ff87af}
.c-212 {fill: #ff87d7}
.c-213 {fill: #ff87ff}
.c-214 {fill: #ffaf00}
.c-215 {fill: #ffaf5f}
.c-216 {fill: #ffaf87}
.c-217 {fill: #ffafaf}
.c-218 {fill: #ffafd7}
.c-219 {fill: #ffafff}
.c-220 {fill: #ffd700}
.c-221 {fill: #ffd75f}
.c-222 {fill: #ffd787}
.c-223 {fill: #ffd7af}
.c-224 {fill: #ffd7d7}
.c-225 {fill: #ffd7ff}
.c-226 {fill: #ffff00}
.c-227 {fill: #ffff5f}
.c-228 {fill: #ffff87}
.c-229 {fill: #ffffaf}
.c-230 {fill: #ffffd7}
.c-231 {fill: #ffffff}
.c-232 {fill: #080808}
.c-233 {fill: #121212}
.c-234 {fill: #1c1c1c}
.c-235 {fill: #262626}
.c-236 {fill: #303030}
.c-237 {fill: #3a3a3a}
.c-238 {fill: #444444}
.c-239 {fill: #4e4e4e}
.c-240 {fill: #585858}
.c-241 {fill: #626262}
.c-242 {fill: #6c6c6c}
.c-243 {fill: #767676}
.c-244 {fill: #808080}
.c-245 {fill: #8a8a8a}
.c-246 {fill: #949494}
.c-247 {fill: #9e9e9e}
.c-248 {fill: #a8a8a8}
.c-249 {fill: #b2b2b2}
.c-250 {fill: #bcbcbc}
.c-251 {fill: #c6c6c6}
.c-252 {fill: #d0d0d0}
.c-253 {fill: #dadada}
.c-254 {fill: #e4e4e4}
.c-255 {fill: #eeeeee}

.br { font-weight: bold }
.it { font-style: italic }
.un { text-decoration: underline }
</style>

<rect width="100%" height="100%" class="default-bg-fill" rx="4" ry="4" />

<svg x="0.943%" y="1.786%" class="default-text-fill">
<g style="shape-rendering: optimizeSpeed">
<rect x="0.000%" y="92.857%" width="0.943%" height="19.7" class="c-7" />
</g>

<text class="default-text-fill">
<tspan y="0.000%">
<tspan dy="1em" x="2.830%">/</tspan><tspan x="3.774%">/</tspan><tspan x="4.717%">_</tspan><tspan x="5.660%">_</tspan><tspan x="6.604%">|</tspan><tspan x="8.491%">|</tspan><tspan x="14.151%">_</tspan><tspan x="15.094%">_</tspan><tspan x="20.755%">/</tspan><tspan x="22.642%">_</tspan><tspan x="23.585%">_</tspan><tspan x="24.528%">_</tspan><tspan x="31.132%">_</tspan><tspan x="32.075%">_</tspan><tspan x="33.019%">_</tspan><tspan x="40.566%">_</tspan><tspan x="41.509%">_</tspan>
</tspan>
<tspan y="3.571%">
<tspan dy="1em" x="1.887%">/</tspan><tspan x="3.774%">_</tspan><tspan x="4.717%">_</tspan><tspan x="5.660%">_</tspan><tspan x="8.491%">|</tspan><tspan x="12.264%">/</tspan><tspan x="13.208%">/</tspan><tspan x="16.038%">)</tspan><tspan x="17.925%">)</tspan><tspan x="19.811%">/</tspan><tspan x="20.755%">/</tspan><tspan x="21.698%">\</tspan><tspan x="23.585%">\</tspan><tspan x="29.245%">/</tspan><tspan x="30.189%">/</tspan><tspan x="31.132%">_</tspan><tspan x="32.075%">_</tspan><tspan x="33.019%">_</tspan><tspan x="33.962%">)</tspan><tspan x="35.849%">)</tspan><tspan x="37.736%">/</tspan><tspan x="38.679%">/</tspan><tspan x="42.453%">)</tspan><tspan x="44.340%">)</tspan>
</tspan>
<tspan y="7.143%">
<tspan dy="1em" x="0.943%">/</tspan><tspan x="1.887%">/</tspan><tspan x="6.604%">|</tspan><tspan x="8.491%">|</tspan><tspan x="11.321%">/</tspan><tspan x="12.264%">/</tspan><tspan x="18.868%">/</tspan><tspan x="19.811%">/</tspan><tspan x="22.642%">\</tspan><tspan x="24.528%">\</tspan><tspan x="28.302%">/</tspan><tspan x="29.245%">/</tspan><tspan x="36.792%">/</tspan><tspan x="37.736%">/</tspan><tspan x="41.509%">/</tspan><tspan x="43.396%">/</tspan>
</tspan>
<tspan y="10.714%">
<tspan dy="1em" x="0.000%">/</tspan><tspan x="0.943%">/</tspan><tspan x="6.604%">|</tspan><tspan x="8.491%">|</tspan><tspan x="10.377%">/</tspan><tspan x="11.321%">/</tspan><tspan x="17.925%">/</tspan><tspan x="18.868%">/</tspan><tspan x="23.585%">\</tspan><tspan x="25.472%">\</tspan><tspan x="27.358%">(</tspan><tspan x="28.302%">(</tspan><tspan x="29.245%">_</tspan><tspan x="30.189%">_</tspan><tspan x="31.132%">_</tspan><tspan x="32.075%">_</tspan><tspan x="35.849%">/</tspan><tspan x="36.792%">/</tspan><tspan x="40.566%">/</tspan><tspan x="42.453%">/</tspan>
</tspan>
<tspan y="14.286%">
<tspan dy="1em" x="0.000%">A</tspan><tspan x="0.943%">p</tspan><tspan x="1.887%">p</tspan><tspan x="2.830%">l</tspan><tspan x="3.774%">i</tspan><tspan x="4.717%">c</tspan><tspan x="5.660%">a</tspan><tspan x="6.604%">t</tspan><tspan x="7.547%">i</tspan><tspan x="8.491%">o</tspan><tspan x="9.434%">n</tspan><tspan x="11.321%">V</tspan><tspan x="12.264%">e</tspan><tspan x="13.208%">r</tspan><tspan x="14.151%">s</tspan><tspan x="15.094%">i</tspan><tspan x="16.038%">o</tspan><tspan x="16.981%">n</tspan><tspan x="18.868%">0</tspan><tspan x="19.811%">.</tspan><tspan x="20.755%">0</tspan><tspan x="21.698%">.</tspan><tspan x="22.642%">1</tspan>
</tspan>
<tspan y="17.857%">

</tspan>
<tspan y="21.429%">
<tspan dy="1em" x="0.000%">A</tspan><tspan x="0.943%">r</tspan><tspan x="1.887%">k</tspan><tspan x="2.830%">e</tspan><tspan x="3.774%">n</tspan><tspan x="5.660%">i</tspan><tspan x="6.604%">s</tspan><tspan x="8.491%">n</tspan><tspan x="9.434%">o</tspan><tspan x="10.377%">w</tspan><tspan x="12.264%">i</tspan><tspan x="13.208%">n</tspan><tspan x="15.094%">[</tspan><tspan x="16.038%">S</tspan><tspan x="16.981%">y</tspan><tspan x="17.925%">s</tspan><tspan x="18.868%">t</tspan><tspan x="19.811%">e</tspan><tspan x="20.755%">m</tspan><tspan x="22.642%">S</tspan><tspan x="23.585%">t</tspan><tspan x="24.528%">a</tspan><tspan x="25.472%">r</tspan><tspan x="26.415%">t</tspan><tspan x="27.358%">u</tspan><tspan x="28.302%">p</tspan><tspan x="29.245%">]</tspan>
</tspan>
<tspan y="25.000%">

</tspan>
<tspan y="28.571%">
<tspan dy="1em" x="0.000%">[</tspan><tspan x="0.943%">I</tspan><tspan x="1.887%">n</tspan><tspan x="2.830%">d</tspan><tspan x="3.774%">e</tspan><tspan x="4.717%">x</tspan><tspan x="5.660%">i</tspan><tspan x="6.604%">n</tspan><tspan x="7.547%">g</tspan><tspan x="9.434%">&amp;</tspan><tspan x="11.321%">U</tspan><tspan x="12.264%">p</tspan><tspan x="13.208%">d</tspan><tspan x="14.151%">a</tspan><tspan x="15.094%">t</tspan><tspan x="16.038%">i</tspan><tspan x="16.981%">n</tspan><tspan x="17.925%">g</tspan><tspan x="19.811%">K</tspan><tspan x="20.755%">e</tspan><tspan x="21.698%">y</tspan><tspan x="22.642%">s</tspan><tspan x="23.585%">e</tspan><tspan x="24.528%">t</tspan><tspan x="25.472%">s</tspan><tspan x="26.415%">]</tspan>
</tspan>
<tspan y="32.143%">
<tspan dy="1em" x="0.000%">I</tspan><tspan x="0.943%">n</tspan><tspan x="1.887%">d</tspan><tspan x="2.830%">e</tspan><tspan x="3.774%">x</tspan><tspan x="4.717%">i</tspan><tspan x="5.660%">n</tspan><tspan x="6.604%">g</tspan><tspan x="7.547%">:</tspan><tspan x="9.434%">c</tspan><tspan x="10.377%">o</tspan><tspan x="11.321%">r</tspan><tspan x="12.264%">e</tspan><tspan x="13.208%">-</tspan><tspan x="14.151%">k</tspan><tspan x="15.094%">e</tspan><tspan x="16.038%">y</tspan><tspan x="16.981%">s</tspan><tspan x="17.925%">e</tspan><tspan x="18.868%">t</tspan>
</tspan>
<tspan y="35.714%">
<tspan dy="1em" x="0.000%">F</tspan><tspan x="0.943%">o</tspan><tspan x="1.887%">u</tspan><tspan x="2.830%">n</tspan><tspan x="3.774%">d</tspan><tspan x="5.660%">L</tspan><tspan x="6.604%">i</tspan><tspan x="7.547%">g</tspan><tspan x="8.491%">h</tspan><tspan x="9.434%">t</tspan><tspan x="11.321%">H</tspan><tspan x="12.264%">o</tspan><tspan x="13.208%">u</tspan><tspan x="14.151%">s</tspan><tspan x="15.094%">e</tspan><tspan x="16.981%">F</tspan><tspan x="17.925%">i</tspan><tspan x="18.868%">l</tspan><tspan x="19.811%">e</tspan><tspan x="20.755%">:</tspan><tspan x="22.642%">Q</tspan><tspan x="23.585%">m</tspan><tspan x="24.528%">Q</tspan><tspan x="25.472%">B</tspan><tspan x="26.415%">y</tspan><tspan x="27.358%">w</tspan><tspan x="28.302%">y</tspan><tspan x="29.245%">R</tspan><tspan x="30.189%">v</tspan><tspan x="31.132%">S</tspan><tspan x="32.075%">3</tspan><tspan x="33.019%">M</tspan><tspan x="33.962%">J</tspan><tspan x="34.906%">C</tspan><tspan x="35.849%">P</tspan><tspan x="36.792%">8</tspan><tspan x="37.736%">j</tspan><tspan x="38.679%">b</tspan><tspan x="39.623%">V</tspan><tspan x="40.566%">4</tspan><tspan x="41.509%">B</tspan><tspan x="42.453%">s</tspan><tspan x="43.396%">z</tspan><tspan x="44.340%">8</tspan><tspan x="45.283%">W</tspan><tspan x="46.226%">M</tspan><tspan x="47.170%">b</tspan><tspan x="48.113%">R</tspan><tspan x="49.057%">F</tspan><tspan x="50.000%">s</tspan><tspan x="50.943%">o</tspan><tspan x="51.887%">u</tspan><tspan x="52.830%">x</tspan><tspan x="53.774%">6</tspan><tspan x="54.717%">E</tspan><tspan x="55.660%">j</tspan><tspan x="56.604%">s</tspan><tspan x="57.547%">E</tspan><tspan x="58.491%">w</tspan><tspan x="59.434%">H</tspan><tspan x="60.377%">h</tspan><tspan x="61.321%">B</tspan><tspan x="62.264%">D</tspan><tspan x="63.208%">W</tspan><tspan x="64.151%">q</tspan><tspan x="65.094%">e</tspan>
</tspan>
<tspan y="39.286%">
<tspan dy="1em" x="0.000%">P</tspan><tspan x="0.943%">a</tspan><tspan x="1.887%">r</tspan><tspan x="2.830%">s</tspan><tspan x="3.774%">e</tspan><tspan x="4.717%">d</tspan><tspan x="5.660%">:</tspan><tspan x="7.547%">[</tspan><tspan x="8.491%">N</tspan><tspan x="9.434%">O</tspan><tspan x="10.377%">D</tspan><tspan x="11.321%">E</tspan><tspan x="12.264%">_</tspan><tspan x="13.208%">V</tspan><tspan x="14.151%">O</tspan><tspan x="15.094%">L</tspan><tspan x="16.038%">_</tspan><tspan x="16.981%">0</tspan><tspan x="17.925%">1</tspan><tspan x="18.868%">.</tspan><tspan x="19.811%">p</tspan><tspan x="20.755%">d</tspan><tspan x="21.698%">f</tspan><tspan x="23.585%">Q</tspan><tspan x="24.528%">m</tspan><tspan x="25.472%">Y</tspan><tspan x="26.415%">y</tspan><tspan x="27.358%">L</tspan><tspan x="28.302%">w</tspan><tspan x="29.245%">s</tspan><tspan x="30.189%">3</tspan><tspan x="31.132%">L</tspan><tspan x="32.075%">m</tspan><tspan x="33.019%">M</tspan><tspan x="33.962%">8</tspan><tspan x="34.906%">5</tspan><tspan x="35.849%">E</tspan><tspan x="36.792%">f</tspan><tspan x="37.736%">g</tspan><tspan x="38.679%">N</tspan><tspan x="39.623%">r</tspan><tspan x="40.566%">E</tspan><tspan x="41.509%">g</tspan><tspan x="42.453%">G</tspan><tspan x="43.396%">E</tspan><tspan x="44.340%">N</tspan><tspan x="45.283%">o</tspan><tspan x="46.226%">G</tspan><tspan x="47.170%">8</tspan><tspan x="48.113%">L</tspan><tspan x="49.057%">P</tspan><tspan x="50.000%">c</tspan><tspan x="50.943%">K</tspan><tspan x="51.887%">n</tspan><tspan x="52.830%">Z</tspan><tspan x="53.774%">H</tspan><tspan x="54.717%">R</tspan><tspan x="55.660%">8</tspan><tspan x="56.604%">7</tspan><tspan x="57.547%">A</tspan><tspan x="58.491%">7</tspan><tspan x="59.434%">B</tspan><tspan x="60.377%">b</tspan><tspan x="61.321%">g</tspan><tspan x="62.264%">F</tspan><tspan x="63.208%">q</tspan><tspan x="64.151%">K</tspan><tspan x="65.094%">s</tspan><tspan x="66.038%">f</tspan><tspan x="66.981%">]</tspan>
</tspan>
<tspan y="42.857%">
<tspan dy="1em" x="0.000%">P</tspan><tspan x="0.943%">a</tspan><tspan x="1.887%">r</tspan><tspan x="2.830%">s</tspan><tspan x="3.774%">e</tspan><tspan x="4.717%">d</tspan><tspan x="5.660%">:</tspan><tspan x="7.547%">[</tspan><tspan x="8.491%">N</tspan><tspan x="9.434%">O</tspan><tspan x="10.377%">D</tspan><tspan x="11.321%">E</tspan><tspan x="12.264%">_</tspan><tspan x="13.208%">V</tspan><tspan x="14.151%">O</tspan><tspan x="15.094%">L</tspan><tspan x="16.038%">_</tspan><tspan x="16.981%">0</tspan><tspan x="17.925%">2</tspan><tspan x="18.868%">.</tspan><tspan x="19.811%">p</tspan><tspan x="20.755%">d</tspan><tspan x="21.698%">f</tspan><tspan x="23.585%">Q</tspan><tspan x="24.528%">m</tspan><tspan x="25.472%">R</tspan><tspan x="26.415%">R</tspan><tspan x="27.358%">h</tspan><tspan x="28.302%">K</tspan><tspan x="29.245%">L</tspan><tspan x="30.189%">e</tspan><tspan x="31.132%">b</tspan><tspan x="32.075%">v</tspan><tspan x="33.019%">X</tspan><tspan x="33.962%">z</tspan><tspan x="34.906%">t</tspan><tspan x="35.849%">o</tspan><tspan x="36.792%">b</tspan><tspan x="37.736%">r</tspan><tspan x="38.679%">h</tspan><tspan x="39.623%">J</tspan><tspan x="40.566%">i</tspan><tspan x="41.509%">f</tspan><tspan x="42.453%">N</tspan><tspan x="43.396%">L</tspan><tspan x="44.340%">V</tspan><tspan x="45.283%">g</tspan><tspan x="46.226%">Q</tspan><tspan x="47.170%">J</tspan><tspan x="48.113%">A</tspan><tspan x="49.057%">4</tspan><tspan x="50.000%">T</tspan><tspan x="50.943%">D</tspan><tspan x="51.887%">f</tspan><tspan x="52.830%">v</tspan><tspan x="53.774%">1</tspan><tspan x="54.717%">t</tspan><tspan x="55.660%">Q</tspan><tspan x="56.604%">V</tspan><tspan x="57.547%">9</tspan><tspan x="58.491%">R</tspan><tspan x="59.434%">s</tspan><tspan x="60.377%">V</tspan><tspan x="61.321%">o</tspan><tspan x="62.264%">L</tspan><tspan x="63.208%">n</tspan><tspan x="64.151%">s</tspan><tspan x="65.094%">S</tspan><tspan x="66.038%">4</tspan><tspan x="66.981%">]</tspan>
</tspan>
<tspan y="46.429%">
<tspan dy="1em" x="0.000%">P</tspan><tspan x="0.943%">a</tspan><tspan x="1.887%">r</tspan><tspan x="2.830%">s</tspan><tspan x="3.774%">e</tspan><tspan x="4.717%">d</tspan><tspan x="5.660%">:</tspan><tspan x="7.547%">[</tspan><tspan x="8.491%">s</tspan><tspan x="9.434%">c</tspan><tspan x="10.377%">r</tspan><tspan x="11.321%">e</tspan><tspan x="12.264%">e</tspan><tspan x="13.208%">n</tspan><tspan x="14.151%">c</tspan><tspan x="15.094%">a</tspan><tspan x="16.038%">s</tspan><tspan x="16.981%">t</tspan><tspan x="17.925%">.</tspan><tspan x="18.868%">m</tspan><tspan x="19.811%">p</tspan><tspan x="20.755%">4</tspan><tspan x="22.642%">Q</tspan><tspan x="23.585%">m</tspan><tspan x="24.528%">T</tspan><tspan x="25.472%">r</tspan><tspan x="26.415%">i</tspan><tspan x="27.358%">b</tspan><tspan x="28.302%">V</tspan><tspan x="29.245%">Q</tspan><tspan x="30.189%">T</tspan><tspan x="31.132%">W</tspan><tspan x="32.075%">o</tspan><tspan x="33.019%">W</tspan><tspan x="33.962%">C</tspan><tspan x="34.906%">Q</tspan><tspan x="35.849%">3</tspan><tspan x="36.792%">x</tspan><tspan x="37.736%">d</tspan><tspan x="38.679%">s</tspan><tspan x="39.623%">K</tspan><tspan x="40.566%">k</tspan><tspan x="41.509%">9</tspan><tspan x="42.453%">a</tspan><tspan x="43.396%">F</tspan><tspan x="44.340%">i</tspan><tspan x="45.283%">3</tspan><tspan x="46.226%">K</tspan><tspan x="47.170%">6</tspan><tspan x="48.113%">c</tspan><tspan x="49.057%">d</tspan><tspan x="50.000%">m</tspan><tspan x="50.943%">1</tspan><tspan x="51.887%">2</tspan><tspan x="52.830%">j</tspan><tspan x="53.774%">3</tspan><tspan x="54.717%">T</tspan><tspan x="55.660%">y</tspan><tspan x="56.604%">1</tspan><tspan x="57.547%">N</tspan><tspan x="58.491%">4</tspan><tspan x="59.434%">n</tspan><tspan x="60.377%">J</tspan><tspan x="61.321%">m</tspan><tspan x="62.264%">E</tspan><tspan x="63.208%">q</tspan><tspan x="64.151%">S</tspan><tspan x="65.094%">8</tspan><tspan x="66.038%">]</tspan>
</tspan>
<tspan y="50.000%">
<tspan dy="1em" x="0.000%">P</tspan><tspan x="0.943%">a</tspan><tspan x="1.887%">r</tspan><tspan x="2.830%">s</tspan><tspan x="3.774%">e</tspan><tspan x="4.717%">d</tspan><tspan x="5.660%">:</tspan><tspan x="7.547%">[</tspan><tspan x="8.491%">a</tspan><tspan x="9.434%">r</tspan><tspan x="10.377%">c</tspan><tspan x="11.321%">h</tspan><tspan x="12.264%">i</tspan><tspan x="13.208%">v</tspan><tspan x="14.151%">a</tspan><tspan x="15.094%">l</tspan><tspan x="16.038%">i</tspan><tspan x="16.981%">s</tspan><tspan x="17.925%">t</tspan><tspan x="18.868%">s</tspan><tspan x="19.811%">_</tspan><tspan x="20.755%">l</tspan><tspan x="21.698%">o</tspan><tspan x="22.642%">g</tspan><tspan x="23.585%">o</tspan><tspan x="24.528%">.</tspan><tspan x="25.472%">s</tspan><tspan x="26.415%">v</tspan><tspan x="27.358%">g</tspan><tspan x="29.245%">Q</tspan><tspan x="30.189%">m</tspan><tspan x="31.132%">U</tspan><tspan x="32.075%">E</tspan><tspan x="33.019%">S</tspan><tspan x="33.962%">5</tspan><tspan x="34.906%">i</tspan><tspan x="35.849%">6</tspan><tspan x="36.792%">q</tspan><tspan x="37.736%">R</tspan><tspan x="38.679%">r</tspan><tspan x="39.623%">Q</tspan><tspan x="40.566%">2</tspan><tspan x="41.509%">n</tspan><tspan x="42.453%">5</tspan><tspan x="43.396%">Y</tspan><tspan x="44.340%">5</tspan><tspan x="45.283%">i</tspan><tspan x="46.226%">s</tspan><tspan x="47.170%">7</tspan><tspan x="48.113%">r</tspan><tspan x="49.057%">F</tspan><tspan x="50.000%">8</tspan><tspan x="50.943%">N</tspan><tspan x="51.887%">z</tspan><tspan x="52.830%">N</tspan><tspan x="53.774%">N</tspan><tspan x="54.717%">q</tspan><tspan x="55.660%">G</tspan><tspan x="56.604%">y</tspan><tspan x="57.547%">p</tspan><tspan x="58.491%">b</tspan><tspan x="59.434%">k</tspan><tspan x="60.377%">n</tspan><tspan x="61.321%">r</tspan><tspan x="62.264%">t</tspan><tspan x="63.208%">j</tspan><tspan x="64.151%">a</tspan><tspan x="65.094%">s</tspan><tspan x="66.038%">5</tspan><tspan x="66.981%">p</tspan><tspan x="67.925%">x</tspan><tspan x="68.868%">B</tspan><tspan x="69.811%">i</tspan><tspan x="70.755%">X</tspan><tspan x="71.698%">N</tspan><tspan x="72.642%">]</tspan>
</tspan>
<tspan y="53.571%">
<tspan dy="1em" x="0.000%">P</tspan><tspan x="0.943%">a</tspan><tspan x="1.887%">r</tspan><tspan x="2.830%">s</tspan><tspan x="3.774%">e</tspan><tspan x="4.717%">d</tspan><tspan x="5.660%">:</tspan><tspan x="7.547%">[</tspan><tspan x="8.491%">a</tspan><tspan x="9.434%">r</tspan><tspan x="10.377%">c</tspan><tspan x="11.321%">h</tspan><tspan x="12.264%">i</tspan><tspan x="13.208%">v</tspan><tspan x="14.151%">a</tspan><tspan x="15.094%">l</tspan><tspan x="16.038%">i</tspan><tspan x="16.981%">s</tspan><tspan x="17.925%">t</tspan><tspan x="18.868%">s</tspan><tspan x="19.811%">.</tspan><tspan x="20.755%">p</tspan><tspan x="21.698%">n</tspan><tspan x="22.642%">g</tspan><tspan x="24.528%">Q</tspan><tspan x="25.472%">m</tspan><tspan x="26.415%">Q</tspan><tspan x="27.358%">E</tspan><tspan x="28.302%">8</tspan><tspan x="29.245%">q</tspan><tspan x="30.189%">1</tspan><tspan x="31.132%">3</tspan><tspan x="32.075%">e</tspan><tspan x="33.019%">z</tspan><tspan x="33.962%">q</tspan><tspan x="34.906%">X</tspan><tspan x="35.849%">T</tspan><tspan x="36.792%">T</tspan><tspan x="37.736%">Z</tspan><tspan x="38.679%">Q</tspan><tspan x="39.623%">8</tspan><tspan x="40.566%">i</tspan><tspan x="41.509%">w</tspan><tspan x="42.453%">g</tspan><tspan x="43.396%">Y</tspan><tspan x="44.340%">b</tspan><tspan x="45.283%">u</tspan><tspan x="46.226%">s</tspan><tspan x="47.170%">C</tspan><tspan x="48.113%">h</tspan><tspan x="49.057%">q</tspan><tspan x="50.000%">3</tspan><tspan x="50.943%">5</tspan><tspan x="51.887%">H</tspan><tspan x="52.830%">q</tspan><tspan x="53.774%">h</tspan><tspan x="54.717%">8</tspan><tspan x="55.660%">T</tspan><tspan x="56.604%">W</tspan><tspan x="57.547%">2</tspan><tspan x="58.491%">D</tspan><tspan x="59.434%">1</tspan><tspan x="60.377%">o</tspan><tspan x="61.321%">E</tspan><tspan x="62.264%">U</tspan><tspan x="63.208%">9</tspan><tspan x="64.151%">Q</tspan><tspan x="65.094%">B</tspan><tspan x="66.038%">H</tspan><tspan x="66.981%">V</tspan><tspan x="67.925%">]</tspan>
</tspan>
<tspan y="57.143%">

</tspan>
<tspan y="60.714%">
<tspan dy="1em" x="0.000%">[</tspan><tspan x="0.943%">S</tspan><tspan x="1.887%">t</tspan><tspan x="2.830%">a</tspan><tspan x="3.774%">r</tspan><tspan x="4.717%">t</tspan><tspan x="5.660%">i</tspan><tspan x="6.604%">n</tspan><tspan x="7.547%">g</tspan><tspan x="9.434%">R</tspan><tspan x="10.377%">e</tspan><tspan x="11.321%">b</tspan><tspan x="12.264%">a</tspan><tspan x="13.208%">l</tspan><tspan x="14.151%">a</tspan><tspan x="15.094%">n</tspan><tspan x="16.038%">c</tspan><tspan x="16.981%">i</tspan><tspan x="17.925%">n</tspan><tspan x="18.868%">g</tspan><tspan x="19.811%">]</tspan>
</tspan>
<tspan y="64.286%">
<tspan dy="1em" x="0.000%">P</tspan><tspan x="0.943%">i</tspan><tspan x="1.887%">n</tspan><tspan x="2.830%">n</tspan><tspan x="3.774%">i</tspan><tspan x="4.717%">n</tspan><tspan x="5.660%">g</tspan><tspan x="7.547%">L</tspan><tspan x="8.491%">i</tspan><tspan x="9.434%">g</tspan><tspan x="10.377%">h</tspan><tspan x="11.321%">t</tspan><tspan x="12.264%">h</tspan><tspan x="13.208%">o</tspan><tspan x="14.151%">u</tspan><tspan x="15.094%">s</tspan><tspan x="16.038%">e</tspan><tspan x="17.925%">F</tspan><tspan x="18.868%">i</tspan><tspan x="19.811%">l</tspan><tspan x="20.755%">e</tspan><tspan x="21.698%">.</tspan><tspan x="22.642%">.</tspan><tspan x="23.585%">.</tspan>
</tspan>
<tspan y="67.857%">
<tspan dy="1em" x="0.000%">C</tspan><tspan x="0.943%">a</tspan><tspan x="1.887%">l</tspan><tspan x="2.830%">c</tspan><tspan x="3.774%">u</tspan><tspan x="4.717%">l</tspan><tspan x="5.660%">a</tspan><tspan x="6.604%">t</tspan><tspan x="7.547%">i</tspan><tspan x="8.491%">n</tspan><tspan x="9.434%">g</tspan><tspan x="11.321%">F</tspan><tspan x="12.264%">i</tspan><tspan x="13.208%">l</tspan><tspan x="14.151%">e</tspan><tspan x="16.038%">M</tspan><tspan x="16.981%">i</tspan><tspan x="17.925%">n</tspan><tspan x="18.868%">i</tspan><tspan x="19.811%">m</tspan><tspan x="20.755%">u</tspan><tspan x="21.698%">m</tspan><tspan x="23.585%">N</tspan><tspan x="24.528%">o</tspan><tspan x="25.472%">d</tspan><tspan x="26.415%">e</tspan><tspan x="27.358%">s</tspan><tspan x="29.245%">T</tspan><tspan x="30.189%">h</tspan><tspan x="31.132%">r</tspan><tspan x="32.075%">e</tspan><tspan x="33.019%">s</tspan><tspan x="33.962%">h</tspan><tspan x="34.906%">o</tspan><tspan x="35.849%">l</tspan><tspan x="36.792%">d</tspan><tspan x="38.679%">f</tspan><tspan x="39.623%">o</tspan><tspan x="40.566%">r</tspan><tspan x="42.453%">c</tspan><tspan x="43.396%">o</tspan><tspan x="44.340%">r</tspan><tspan x="45.283%">e</tspan><tspan x="46.226%">-</tspan><tspan x="47.170%">k</tspan><tspan x="48.113%">e</tspan><tspan x="49.057%">y</tspan><tspan x="50.000%">s</tspan><tspan x="50.943%">e</tspan><tspan x="51.887%">t</tspan>
</tspan>
<tspan y="71.429%">
<tspan dy="1em" x="0.000%">C</tspan><tspan x="0.943%">a</tspan><tspan x="1.887%">l</tspan><tspan x="2.830%">c</tspan><tspan x="3.774%">u</tspan><tspan x="4.717%">l</tspan><tspan x="5.660%">a</tspan><tspan x="6.604%">t</tspan><tspan x="7.547%">e</tspan><tspan x="8.491%">d</tspan><tspan x="10.377%">T</tspan><tspan x="11.321%">h</tspan><tspan x="12.264%">r</tspan><tspan x="13.208%">e</tspan><tspan x="14.151%">s</tspan><tspan x="15.094%">h</tspan><tspan x="16.038%">o</tspan><tspan x="16.981%">l</tspan><tspan x="17.925%">d</tspan><tspan x="19.811%">T</tspan><tspan x="20.755%">o</tspan><tspan x="22.642%">B</tspan><tspan x="23.585%">e</tspan><tspan x="24.528%">:</tspan><tspan x="26.415%">5</tspan>
</tspan>
<tspan y="75.000%">
<tspan dy="1em" x="0.000%">F</tspan><tspan x="0.943%">i</tspan><tspan x="1.887%">l</tspan><tspan x="2.830%">e</tspan><tspan x="3.774%">:</tspan><tspan x="5.660%">Q</tspan><tspan x="6.604%">m</tspan><tspan x="7.547%">T</tspan><tspan x="8.491%">r</tspan><tspan x="9.434%">i</tspan><tspan x="10.377%">b</tspan><tspan x="11.321%">V</tspan><tspan x="12.264%">Q</tspan><tspan x="13.208%">T</tspan><tspan x="14.151%">W</tspan><tspan x="15.094%">o</tspan><tspan x="16.038%">W</tspan><tspan x="16.981%">C</tspan><tspan x="17.925%">Q</tspan><tspan x="18.868%">3</tspan><tspan x="19.811%">x</tspan><tspan x="20.755%">d</tspan><tspan x="21.698%">s</tspan><tspan x="22.642%">K</tspan><tspan x="23.585%">k</tspan><tspan x="24.528%">9</tspan><tspan x="25.472%">a</tspan><tspan x="26.415%">F</tspan><tspan x="27.358%">i</tspan><tspan x="28.302%">3</tspan><tspan x="29.245%">K</tspan><tspan x="30.189%">6</tspan><tspan x="31.132%">c</tspan><tspan x="32.075%">d</tspan><tspan x="33.019%">m</tspan><tspan x="33.962%">1</tspan><tspan x="34.906%">2</tspan><tspan x="35.849%">j</tspan><tspan x="36.792%">3</tspan><tspan x="37.736%">T</tspan><tspan x="38.679%">y</tspan><tspan x="39.623%">1</tspan><tspan x="40.566%">N</tspan><tspan x="41.509%">4</tspan><tspan x="42.453%">n</tspan><tspan x="43.396%">J</tspan><tspan x="44.340%">m</tspan><tspan x="45.283%">E</tspan><tspan x="46.226%">q</tspan><tspan x="47.170%">S</tspan><tspan x="48.113%">8</tspan><tspan x="50.000%">i</tspan><tspan x="50.943%">s</tspan><tspan x="52.830%">b</tspan><tspan x="53.774%">a</tspan><tspan x="54.717%">c</tspan><tspan x="55.660%">k</tspan><tspan x="56.604%">e</tspan><tspan x="57.547%">d</tspan><tspan x="59.434%">u</tspan><tspan x="60.377%">p</tspan><tspan x="62.264%">3</tspan><tspan x="64.151%">t</tspan><tspan x="65.094%">i</tspan><tspan x="66.038%">m</tspan><tspan x="66.981%">e</tspan><tspan x="67.925%">(</tspan><tspan x="68.868%">s</tspan><tspan x="69.811%">)</tspan><tspan x="71.698%">a</tspan><tspan x="72.642%">n</tspan><tspan x="73.585%">d</tspan><tspan x="75.472%">t</tspan><tspan x="76.415%">h</tspan><tspan x="77.358%">e</tspan><tspan x="79.245%">t</tspan><tspan x="80.189%">h</tspan><tspan x="81.132%">r</tspan><tspan x="82.075%">e</tspan><tspan x="83.019%">s</tspan><tspan x="83.962%">h</tspan><tspan x="84.906%">o</tspan><tspan x="85.849%">l</tspan><tspan x="86.792%">d</tspan><tspan x="88.679%">i</tspan><tspan x="89.623%">s</tspan><tspan x="91.509%">5</tspan><tspan x="92.453%">.</tspan>
</tspan>
<tspan y="78.571%">
<tspan dy="1em" x="0.000%">F</tspan><tspan x="0.943%">i</tspan><tspan x="1.887%">l</tspan><tspan x="2.830%">e</tspan><tspan x="3.774%">:</tspan><tspan x="5.660%">Q</tspan><tspan x="6.604%">m</tspan><tspan x="7.547%">U</tspan><tspan x="8.491%">E</tspan><tspan x="9.434%">S</tspan><tspan x="10.377%">5</tspan><tspan x="11.321%">i</tspan><tspan x="12.264%">6</tspan><tspan x="13.208%">q</tspan><tspan x="14.151%">R</tspan><tspan x="15.094%">r</tspan><tspan x="16.038%">Q</tspan><tspan x="16.981%">2</tspan><tspan x="17.925%">n</tspan><tspan x="18.868%">5</tspan><tspan x="19.811%">Y</tspan><tspan x="20.755%">5</tspan><tspan x="21.698%">i</tspan><tspan x="22.642%">s</tspan><tspan x="23.585%">7</tspan><tspan x="24.528%">r</tspan><tspan x="25.472%">F</tspan><tspan x="26.415%">8</tspan><tspan x="27.358%">N</tspan><tspan x="28.302%">z</tspan><tspan x="29.245%">N</tspan><tspan x="30.189%">N</tspan><tspan x="31.132%">q</tspan><tspan x="32.075%">G</tspan><tspan x="33.019%">y</tspan><tspan x="33.962%">p</tspan><tspan x="34.906%">b</tspan><tspan x="35.849%">k</tspan><tspan x="36.792%">n</tspan><tspan x="37.736%">r</tspan><tspan x="38.679%">t</tspan><tspan x="39.623%">j</tspan><tspan x="40.566%">a</tspan><tspan x="41.509%">s</tspan><tspan x="42.453%">5</tspan><tspan x="43.396%">p</tspan><tspan x="44.340%">x</tspan><tspan x="45.283%">B</tspan><tspan x="46.226%">i</tspan><tspan x="47.170%">X</tspan><tspan x="48.113%">N</tspan><tspan x="50.000%">i</tspan><tspan x="50.943%">s</tspan><tspan x="52.830%">b</tspan><tspan x="53.774%">a</tspan><tspan x="54.717%">c</tspan><tspan x="55.660%">k</tspan><tspan x="56.604%">e</tspan><tspan x="57.547%">d</tspan><tspan x="59.434%">u</tspan><tspan x="60.377%">p</tspan><tspan x="62.264%">3</tspan><tspan x="64.151%">t</tspan><tspan x="65.094%">i</tspan><tspan x="66.038%">m</tspan><tspan x="66.981%">e</tspan><tspan x="67.925%">(</tspan><tspan x="68.868%">s</tspan><tspan x="69.811%">)</tspan><tspan x="71.698%">a</tspan><tspan x="72.642%">n</tspan><tspan x="73.585%">d</tspan><tspan x="75.472%">t</tspan><tspan x="76.415%">h</tspan><tspan x="77.358%">e</tspan><tspan x="79.245%">t</tspan><tspan x="80.189%">h</tspan><tspan x="81.132%">r</tspan><tspan x="82.075%">e</tspan><tspan x="83.019%">s</tspan><tspan x="83.962%">h</tspan><tspan x="84.906%">o</tspan><tspan x="85.849%">l</tspan><tspan x="86.792%">d</tspan><tspan x="88.679%">i</tspan><tspan x="89.623%">s</tspan><tspan x="91.509%">5</tspan><tspan x="92.453%">.</tspan>
</tspan>
<tspan y="82.143%">
<tspan dy="1em" x="0.000%">F</tspan><tspan x="0.943%">i</tspan><tspan x="1.887%">l</tspan><tspan x="2.830%">e</tspan><tspan x="3.774%">:</tspan><tspan x="5.660%">Q</tspan><tspan x="6.604%">m</tspan><tspan x="7.547%">R</tspan><tspan x="8.491%">R</tspan><tspan x="9.434%">h</tspan><tspan x="10.377%">K</tspan><tspan x="11.321%">L</tspan><tspan x="12.264%">e</tspan><tspan x="13.208%">b</tspan><tspan x="14.151%">v</tspan><tspan x="15.094%">X</tspan><tspan x="16.038%">z</tspan><tspan x="16.981%">t</tspan><tspan x="17.925%">o</tspan><tspan x="18.868%">b</tspan><tspan x="19.811%">r</tspan><tspan x="20.755%">h</tspan><tspan x="21.698%">J</tspan><tspan x="22.642%">i</tspan><tspan x="23.585%">f</tspan><tspan x="24.528%">N</tspan><tspan x="25.472%">L</tspan><tspan x="26.415%">V</tspan><tspan x="27.358%">g</tspan><tspan x="28.302%">Q</tspan><tspan x="29.245%">J</tspan><tspan x="30.189%">A</tspan><tspan x="31.132%">4</tspan><tspan x="32.075%">T</tspan><tspan x="33.019%">D</tspan><tspan x="33.962%">f</tspan><tspan x="34.906%">v</tspan><tspan x="35.849%">1</tspan><tspan x="36.792%">t</tspan><tspan x="37.736%">Q</tspan><tspan x="38.679%">V</tspan><tspan x="39.623%">9</tspan><tspan x="40.566%">R</tspan><tspan x="41.509%">s</tspan><tspan x="42.453%">V</tspan><tspan x="43.396%">o</tspan><tspan x="44.340%">L</tspan><tspan x="45.283%">n</tspan><tspan x="46.226%">s</tspan><tspan x="47.170%">S</tspan><tspan x="48.113%">4</tspan><tspan x="50.000%">i</tspan><tspan x="50.943%">s</tspan><tspan x="52.830%">b</tspan><tspan x="53.774%">a</tspan><tspan x="54.717%">c</tspan><tspan x="55.660%">k</tspan><tspan x="56.604%">e</tspan><tspan x="57.547%">d</tspan><tspan x="59.434%">u</tspan><tspan x="60.377%">p</tspan><tspan x="62.264%">1</tspan><tspan x="64.151%">t</tspan><tspan x="65.094%">i</tspan><tspan x="66.038%">m</tspan><tspan x="66.981%">e</tspan><tspan x="67.925%">(</tspan><tspan x="68.868%">s</tspan><tspan x="69.811%">)</tspan><tspan x="71.698%">a</tspan><tspan x="72.642%">n</tspan><tspan x="73.585%">d</tspan><tspan x="75.472%">t</tspan><tspan x="76.415%">h</tspan><tspan x="77.358%">e</tspan><tspan x="79.245%">t</tspan><tspan x="80.189%">h</tspan><tspan x="81.132%">r</tspan><tspan x="82.075%">e</tspan><tspan x="83.019%">s</tspan><tspan x="83.962%">h</tspan><tspan x="84.906%">o</tspan><tspan x="85.849%">l</tspan><tspan x="86.792%">d</tspan><tspan x="88.679%">i</tspan><tspan x="89.623%">s</tspan><tspan x="91.509%">5</tspan><tspan x="92.453%">.</tspan>
</tspan>
<tspan y="85.714%">
<tspan dy="1em" x="0.000%">F</tspan><tspan x="0.943%">i</tspan><tspan x="1.887%">l</tspan><tspan x="2.830%">e</tspan><tspan x="3.774%">:</tspan><tspan x="5.660%">Q</tspan><tspan x="6.604%">m</tspan><tspan x="7.547%">Y</tspan><tspan x="8.491%">y</tspan><tspan x="9.434%">L</tspan><tspan x="10.377%">w</tspan><tspan x="11.321%">s</tspan><tspan x="12.264%">3</tspan><tspan x="13.208%">L</tspan><tspan x="14.151%">m</tspan><tspan x="15.094%">M</tspan><tspan x="16.038%">8</tspan><tspan x="16.981%">5</tspan><tspan x="17.925%">E</tspan><tspan x="18.868%">f</tspan><tspan x="19.811%">g</tspan><tspan x="20.755%">N</tspan><tspan x="21.698%">r</tspan><tspan x="22.642%">E</tspan><tspan x="23.585%">g</tspan><tspan x="24.528%">G</tspan><tspan x="25.472%">E</tspan><tspan x="26.415%">N</tspan><tspan x="27.358%">o</tspan><tspan x="28.302%">G</tspan><tspan x="29.245%">8</tspan><tspan x="30.189%">L</tspan><tspan x="31.132%">P</tspan><tspan x="32.075%">c</tspan><tspan x="33.019%">K</tspan><tspan x="33.962%">n</tspan><tspan x="34.906%">Z</tspan><tspan x="35.849%">H</tspan><tspan x="36.792%">R</tspan><tspan x="37.736%">8</tspan><tspan x="38.679%">7</tspan><tspan x="39.623%">A</tspan><tspan x="40.566%">7</tspan><tspan x="41.509%">B</tspan><tspan x="42.453%">b</tspan><tspan x="43.396%">g</tspan><tspan x="44.340%">F</tspan><tspan x="45.283%">q</tspan><tspan x="46.226%">K</tspan><tspan x="47.170%">s</tspan><tspan x="48.113%">f</tspan><tspan x="50.000%">i</tspan><tspan x="50.943%">s</tspan><tspan x="52.830%">b</tspan><tspan x="53.774%">a</tspan><tspan x="54.717%">c</tspan><tspan x="55.660%">k</tspan><tspan x="56.604%">e</tspan><tspan x="57.547%">d</tspan><tspan x="59.434%">u</tspan><tspan x="60.377%">p</tspan><tspan x="62.264%">3</tspan><tspan x="64.151%">t</tspan><tspan x="65.094%">i</tspan><tspan x="66.038%">m</tspan><tspan x="66.981%">e</tspan><tspan x="67.925%">(</tspan><tspan x="68.868%">s</tspan><tspan x="69.811%">)</tspan><tspan x="71.698%">a</tspan><tspan x="72.642%">n</tspan><tspan x="73.585%">d</tspan><tspan x="75.472%">t</tspan><tspan x="76.415%">h</tspan><tspan x="77.358%">e</tspan><tspan x="79.245%">t</tspan><tspan x="80.189%">h</tspan><tspan x="81.132%">r</tspan><tspan x="82.075%">e</tspan><tspan x="83.019%">s</tspan><tspan x="83.962%">h</tspan><tspan x="84.906%">o</tspan><tspan x="85.849%">l</tspan><tspan x="86.792%">d</tspan><tspan x="88.679%">i</tspan><tspan x="89.623%">s</tspan><tspan x="91.509%">5</tspan><tspan x="92.453%">.</tspan>
</tspan>
<tspan y="89.286%">
<tspan dy="1em" x="0.000%">F</tspan><tspan x="0.943%">i</tspan><tspan x="1.887%">l</tspan><tspan x="2.830%">e</tspan><tspan x="3.774%">:</tspan><tspan x="5.660%">Q</tspan><tspan x="6.604%">m</tspan><tspan x="7.547%">Q</tspan><tspan x="8.491%">E</tspan><tspan x="9.434%">8</tspan><tspan x="10.377%">q</tspan><tspan x="11.321%">1</tspan><tspan x="12.264%">3</tspan><tspan x="13.208%">e</tspan><tspan x="14.151%">z</tspan><tspan x="15.094%">q</tspan><tspan x="16.038%">X</tspan><tspan x="16.981%">T</tspan><tspan x="17.925%">T</tspan><tspan x="18.868%">Z</tspan><tspan x="19.811%">Q</tspan><tspan x="20.755%">8</tspan><tspan x="21.698%">i</tspan><tspan x="22.642%">w</tspan><tspan x="23.585%">g</tspan><tspan x="24.528%">Y</tspan><tspan x="25.472%">b</tspan><tspan x="26.415%">u</tspan><tspan x="27.358%">s</tspan><tspan x="28.302%">C</tspan><tspan x="29.245%">h</tspan><tspan x="30.189%">q</tspan><tspan x="31.132%">3</tspan><tspan x="32.075%">5</tspan><tspan x="33.019%">H</tspan><tspan x="33.962%">q</tspan><tspan x="34.906%">h</tspan><tspan x="35.849%">8</tspan><tspan x="36.792%">T</tspan><tspan x="37.736%">W</tspan><tspan x="38.679%">2</tspan><tspan x="39.623%">D</tspan><tspan x="40.566%">1</tspan><tspan x="41.509%">o</tspan><tspan x="42.453%">E</tspan><tspan x="43.396%">U</tspan><tspan x="44.340%">9</tspan><tspan x="45.283%">Q</tspan><tspan x="46.226%">B</tspan><tspan x="47.170%">H</tspan><tspan x="48.113%">V</tspan><tspan x="50.000%">i</tspan><tspan x="50.943%">s</tspan><tspan x="52.830%">b</tspan><tspan x="53.774%">a</tspan><tspan x="54.717%">c</tspan><tspan x="55.660%">k</tspan><tspan x="56.604%">e</tspan><tspan x="57.547%">d</tspan><tspan x="59.434%">u</tspan><tspan x="60.377%">p</tspan><tspan x="62.264%">1</tspan><tspan x="64.151%">t</tspan><tspan x="65.094%">i</tspan><tspan x="66.038%">m</tspan><tspan x="66.981%">e</tspan><tspan x="67.925%">(</tspan><tspan x="68.868%">s</tspan><tspan x="69.811%">)</tspan><tspan x="71.698%">a</tspan><tspan x="72.642%">n</tspan><tspan x="73.585%">d</tspan><tspan x="75.472%">t</tspan><tspan x="76.415%">h</tspan><tspan x="77.358%">e</tspan><tspan x="79.245%">t</tspan><tspan x="80.189%">h</tspan><tspan x="81.132%">r</tspan><tspan x="82.075%">e</tspan><tspan x="83.019%">s</tspan><tspan x="83.962%">h</tspan><tspan x="84.906%">o</tspan><tspan x="85.849%">l</tspan><tspan x="86.792%">d</tspan><tspan x="88.679%">i</tspan><tspan x="89.623%">s</tspan><tspan x="91.509%">5</tspan><tspan x="92.453%">.</tspan>
</tspan>
<tspan y="92.857%">

</tspan>

</text>

<g transform="translate(-50 -50)">
<svg x="50%" y="50%" width="100" height="100">
<svg version="1.1" xmlns="http://www.w3.org/2000/svg" viewBox="0 0 866.0254037844387 866.0254037844387">
  <defs>
    <mask id="small-triangle-mask">
      <rect width="100%" height="100%" fill="white"/>
      <polygon points="508.01270189221935 433.01270189221935, 208.0127018922194 259.8076211353316, 208.01270189221927 606.217782649107" fill="black"></polygon>
    </mask>
  </defs>
  <polygon points="808.0127018922194 433.01270189221935, 58.01270189221947 -1.1368683772161603e-13, 58.01270189221913 866.0254037844386" mask="url(#small-triangle-mask)" fill="white"></polygon>
  <polyline points="481.2177826491071 333.0127018922194, 134.80762113533166 533.0127018922194" stroke="white" stroke-width="90"></polyline>
</svg>

</svg>
</g>
</svg>
</svg>
