<?xml version="1.0" encoding="UTF-8" standalone="no"?>
<svg
   xmlns:dc="http://purl.org/dc/elements/1.1/"
   xmlns:cc="http://creativecommons.org/ns#"
   xmlns:rdf="http://www.w3.org/1999/02/22-rdf-syntax-ns#"
   xmlns:svg="http://www.w3.org/2000/svg"
   xmlns="http://www.w3.org/2000/svg"
   xmlns:sodipodi="http://sodipodi.sourceforge.net/DTD/sodipodi-0.dtd"
   xmlns:inkscape="http://www.inkscape.org/namespaces/inkscape"
   inkscape:version="1.0 (4035a4fb49, 2020-05-01)"
   inkscape:export-ydpi="300"
   inkscape:export-xdpi="300"
   inkscape:export-filename="just_rock_noback.png"
   sodipodi:docname="source_logo.svg"
   viewBox="0 0 600 300"
   height="300"
   width="600"
   id="svg2"
   version="1.1">
  <metadata
     id="metadata8">
    <rdf:RDF>
      <cc:Work
         rdf:about="">
        <dc:format>image/svg+xml</dc:format>
        <dc:type
           rdf:resource="http://purl.org/dc/dcmitype/StillImage" />
        <dc:title></dc:title>
      </cc:Work>
    </rdf:RDF>
  </metadata>
  <defs
     id="defs6" />
  <sodipodi:namedview
     inkscape:current-layer="g10"
     inkscape:window-maximized="1"
     inkscape:window-y="34"
     inkscape:window-x="0"
     inkscape:cy="246.22947"
     inkscape:cx="376.31958"
     inkscape:zoom="1.35"
     inkscape:document-rotation="0"
     showgrid="false"
     id="namedview4"
     inkscape:window-height="1007"
     inkscape:window-width="1920"
     inkscape:pageshadow="2"
     inkscape:pageopacity="0"
     guidetolerance="10"
     gridtolerance="10"
     objecttolerance="10"
     borderopacity="1"
     bordercolor="#666666"
     pagecolor="#ffffff" />
  <g
     id="g10"
     inkscape:label="Image"
     inkscape:groupmode="layer">
    <path
       sodipodi:nodetypes="sscccccccccccccsssccsssccccsssssscccccccccccccsccccsccccccccccssscssscsscssccccccccccccccccccccccccccccccccccccccccccccccccccc"
       style="fill:#333333;fill-opacity:1;stroke-width:0.831944"
       d="m 229.60689,190.80836 c 0.45224,-0.81894 12.20605,-19.45894 26.11954,-41.42223 l 25.29728,-39.93325 7.62111,-0.2392 7.62112,-0.2392 v 41.62835 41.62835 h -6.23957 -6.23958 v -9.56734 -9.56734 l -14.35101,0.0168 -14.35101,0.0168 -5.8657,9.34253 -5.8657,9.34253 -7.28437,0.24108 c -6.78713,0.22459 -7.22824,0.13942 -6.46211,-1.24791 z m 54.1799,-46.54534 v -16.35434 l -9.62232,15.18166 c -5.29229,8.34992 -9.82482,15.70937 -10.07232,16.35433 -0.3719,0.96916 1.29816,1.17268 9.62232,1.17268 h 10.07232 z m 26.62218,6.3007 v -41.66746 l 18.09476,0.28408 c 16.26326,0.25534 18.47796,0.46082 21.88076,2.0301 15.3812,7.09343 19.26546,25.85895 7.94593,38.38831 -1.65797,1.83518 -4.13359,3.80024 -5.50135,4.36679 -1.36777,0.56653 -2.48685,1.20542 -2.48685,1.41973 0,0.44333 12.0731,23.77692 16.37418,31.64627 l 2.84194,5.19964 h -7.0471 -7.04708 l -9.00358,-17.4708 -9.00355,-17.4708 h -7.28447 -7.28445 v 17.4708 17.4708 h -6.23957 -6.23957 z m 37.86798,-8.24909 c 6.44026,-6.02457 5.75119,-14.74042 -1.51569,-19.1713 -2.26731,-1.38248 -4.21979,-1.62151 -13.26588,-1.62417 l -10.60727,-0.002 v 11.71008 11.71009 l 11.58274,-0.27087 c 11.02467,-0.25782 11.68985,-0.37109 13.8061,-2.35073 z m 29.51939,8.31941 v -41.59713 h 6.22364 6.22366 l 0.22391,18.16394 0.2239,18.16394 14.559,-18.14443 14.55899,-18.14444 7.79734,-0.0195 c 6.12501,-0.0153 7.62047,0.20352 6.97264,1.02042 -0.45356,0.57196 -7.97479,9.94744 -16.71383,20.83439 l -15.88914,19.79445 15.89919,19.30686 c 8.74456,10.61876 16.46516,19.96201 17.15689,20.76275 1.1858,1.37268 0.80499,1.4559 -6.6628,1.4559 h -7.92049 l -5.29415,-6.44757 c -2.91179,-3.54614 -8.81429,-10.69713 -13.11667,-15.89106 l -7.8225,-9.44352 -1.94031,2.37201 c -1.85231,2.26442 -1.94165,2.98507 -1.97022,15.89107 l -0.0299,13.51903 h -6.23958 -6.23957 z m 69.88319,0 v -41.59713 h 20.79858 20.79855 v 6.23957 6.23957 H 474.3017 459.32673 v 11.6472 11.6472 h 11.64721 11.64718 v 5.80013 5.80011 l -11.43921,0.23146 -11.43921,0.23146 v 11.6472 11.64721 l 14.76698,0.22716 14.76698,0.22721 v 5.80439 5.8044 h -20.79855 -20.79858 z m 51.58045,0 v -41.59713 l 6.44756,0.0191 6.44756,0.0191 17.88676,30.01383 17.88677,30.01383 0.21836,-30.03295 0.21838,-30.03296 h 6.22918 6.2292 v 41.59714 41.59713 h -6.61281 -6.61281 l -17.72151,-29.53771 -17.72152,-29.5377 -0.21849,29.5377 -0.2185,29.53771 h -6.22907 -6.22906 V 150.634 Z"
       id="path16" />
    <path
       sodipodi:nodetypes="sscssssscsscsssscsssssssssscscscssssssssscsss"
       id="path16-3"
       d="M 105.93464,297.26396 C 105.01909,296.46321 90.121108,268.10436 72.828001,234.2443 L 41.385981,172.68053 34.894206,145.75308 C 31.323724,130.94297 28.657131,118.40143 28.968435,117.88299 33.49039,110.35221 104.66028,3.4126748 105.81258,2.4173384 c 0.87796,-0.7583449 2.30985,-1.1922072 3.18201,-0.9641385 0.97369,0.2546369 17.79892,24.7443911 43.59344,63.4518931 l 42.00769,63.037217 -0.39872,5.31428 c -0.21928,2.92287 -1.03388,13.55053 -1.81022,23.61702 l -1.41152,18.30275 -39.82272,60.73181 c -21.90253,33.40251 -40.40079,61.1998 -41.10726,61.77175 -1.68294,1.36252 -2.12876,1.31741 -4.11064,-0.41596 z m 41.3266,-69.06477 36.64583,-55.96167 1.36559,-17.91753 c 0.75106,-9.85464 1.17735,-18.10576 0.9473,-18.33581 -0.23005,-0.23007 -10.84859,4.97483 -23.59676,11.56642 -12.74815,6.59159 -36.16877,18.61196 -52.04581,26.71192 -17.730213,9.0454 -28.727531,15.11176 -28.504953,15.72399 0.199328,0.5482 6.185123,21.58734 13.30179,46.75362 7.116653,25.16625 13.148733,46.44968 13.404613,47.29649 0.25591,0.84681 0.7738,1.22118 1.15091,0.83193 0.37711,-0.38922 17.17628,-25.89044 37.33149,-56.66936 z m -63.597264,-5.79913 -9.489839,-33.45415 -16.24134,-24.35335 c -8.932744,-13.39433 -16.240104,-23.79278 -16.238582,-23.10765 0.0012,0.68513 1.465663,7.29538 3.253649,14.68946 l 3.250891,13.4438 19.936751,38.9686 c 10.965223,21.43274 20.944667,40.97131 22.176545,43.41903 1.231879,2.44773 2.375231,4.31499 2.540779,4.14943 0.165549,-0.16556 -3.969428,-15.35538 -9.188854,-33.75517 z m 35.800644,-60.96085 c 22.2331,-11.44475 46.02566,-23.61427 52.87238,-27.04335 6.84673,-3.42907 12.4486,-6.60875 12.4486,-7.06595 0,-0.99939 -76.53561,-115.918367 -76.92501,-115.503698 -0.14947,0.159146 -16.186253,24.372088 -35.637329,53.80654 l -35.365586,53.517188 20.824878,31.54895 c 11.45368,17.35194 20.944878,31.54897 21.091571,31.54897 0.14668,0 18.457412,-9.36389 40.690496,-20.80865 z"
       style="fill:#333333;fill-opacity:1;stroke-width:0.831944" />
  </g>
</svg>
