<?xml version="1.0" encoding="UTF-8" standalone="no"?>
<svg
   xmlns:dc="http://purl.org/dc/elements/1.1/"
   xmlns:cc="http://creativecommons.org/ns#"
   xmlns:rdf="http://www.w3.org/1999/02/22-rdf-syntax-ns#"
   xmlns:svg="http://www.w3.org/2000/svg"
   xmlns="http://www.w3.org/2000/svg"
   xmlns:sodipodi="http://sodipodi.sourceforge.net/DTD/sodipodi-0.dtd"
   xmlns:inkscape="http://www.inkscape.org/namespaces/inkscape"
   inkscape:version="1.0 (4035a4fb49, 2020-05-01)"
   sodipodi:docname="logo.svg"
   xml:space="preserve"
   style="enable-background:new 0 0 779.3 360;"
   viewBox="0 0 779.3 360"
   y="0px"
   x="0px"
   id="Layer_1"
   version="1.1"><metadata
   id="metadata20"><rdf:RDF><cc:Work
       rdf:about=""><dc:format>image/svg+xml</dc:format><dc:type
         rdf:resource="http://purl.org/dc/dcmitype/StillImage" /></cc:Work></rdf:RDF></metadata><defs
   id="defs18" /><sodipodi:namedview
   inkscape:current-layer="Layer_1"
   inkscape:window-maximized="0"
   inkscape:window-y="34"
   inkscape:window-x="0"
   inkscape:cy="180"
   inkscape:cx="389.64999"
   inkscape:zoom="1.5488259"
   showgrid="false"
   id="namedview16"
   inkscape:window-height="933"
   inkscape:window-width="1864"
   inkscape:pageshadow="2"
   inkscape:pageopacity="0"
   guidetolerance="10"
   gridtolerance="10"
   objecttolerance="10"
   borderopacity="1"
   bordercolor="#666666"
   pagecolor="#ffffff" />
<style
   id="style2"
   type="text/css">
	.st0{fill:#D1D3D4;stroke:#000000;stroke-miterlimit:10;}
	.st1{fill:none;stroke:#000000;stroke-width:6;stroke-linejoin:round;stroke-miterlimit:10;}
	.st2{fill:none;stroke:#000000;stroke-width:5;stroke-linejoin:round;stroke-miterlimit:10;}
	.st3{fill:#010101;}
</style>
<polygon
   transform="matrix(1.2242711,0,0,1.2242711,-24.950163,-40.469723)"
   id="polygon4"
   points="88.4,214 108.8,316.8 43.8,201.8 33.2,148.4 "
   class="st0" />
<path
   id="path6"
   d="M 109.96451,9.9702469 C 127.9613,42.413431 206.92678,150.639 206.92678,150.639 l -3.1831,56.80618 c 0,0 -58.64259,87.29053 -93.77917,143.48457 C 83.030548,296.32726 28.672911,206.71061 28.672911,206.71061 L 15.57321,139.74298 c 0.122427,-0.12242 75.659955,-95.003434 94.3913,-129.7727331 z"
   class="st1" />
<polyline
   transform="matrix(1.2242711,0,0,1.2242711,-24.950163,-40.469723)"
   id="polyline8"
   points="33.2,147.1 88.4,211 110.2,319.6 "
   class="st2" />
<line
   id="line10"
   y2="150.63901"
   x2="206.92677"
   y1="217.85149"
   x1="83.275406"
   class="st2" />
<g
   transform="matrix(1.6052162647247314,0,0,1.6052162647247314,119.93739727590126,47.65617923820932)"
   id="SvgjsG1030">
	<path
   id="path12"
   d="M112.3,45.2L66,118.3h13.1l10.8-17.1h24.8v17.1h11.1V45.2L112.3,45.2L112.3,45.2z M114.8,62v28.2H96.9   L114.8,62z M157.7,76.4V56.2h15.9c2.8,0,5.1,1,7.1,3c1.9,2,2.9,4.4,2.9,7.2c0,2.8-1,5.1-2.9,7.1c-2,2-4.3,3-7.1,3H157.7z    M181.9,85.8c3.8-1.6,6.9-4.2,9.3-7.7c2.4-3.5,3.6-7.5,3.6-11.8c0-5.9-2.1-10.9-6.2-15c-4.1-4.2-9.1-6.2-14.9-6.2h-27v73.1h11.1   V87.5h12.5l16,30.8h12.5L181.9,85.8z M251.7,45.2l-25.6,31.7V45.2H215v73.1h11.1V94.6l3.4-4.2l23,27.9h14.4l-30.3-36.8l29.2-36.4   L251.7,45.2L251.7,45.2z M283.2,45.2v73.1h37.3v-11.1h-26.2v-20h20.2V76.1h-20.2V56.2h26.2V45.2L283.2,45.2L283.2,45.2z    M380.3,45.2v52.3l-31.2-52.3h-11.6v73.1h11.1V66l31.3,52.3h11.6V45.2L380.3,45.2L380.3,45.2z"
   class="st3" />
</g>
</svg>
